<svg preserveAspectRatio="xMidYMid meet" viewBox="88.42857142857143 366.0617283950617 1680.142857142857 459.4197530864198" xmlns="http://www.w3.org/2000/svg" version="1.0" style="max-height: 500px" width="1680.142857142857" height="459.4197530864198">

<g stroke="none" fill="#000000" transform="translate(0.000000,1194.000000) scale(0.100000,-0.100000)">
<path d="M3010 8100 c-19 -5 -84 -13 -144 -20 -204 -21 -471 -102 -680 -205&#10;l-101 -50 -2 -845 c-1 -724 1 -836 12 -785 49 220 179 443 338 576 182 153&#10;371 235 605 261 l107 11 -3 521 c-1 287 -2 527 -2 534 0 14 -73 15 -130 2z"/>
<path d="M14616 7043 c-1 -1 -51 -3 -111 -4 -458 -8 -577 -82 -592 -365 -11&#10;-198 32 -319 131 -371 95 -49 226 -62 632 -63 171 0 336 -5 365 -10 75 -14&#10;104 -45 104 -109 0 -58 -20 -86 -74 -102 -50 -15 -464 -23 -594 -11 -127 11&#10;-154 28 -164 101 l-6 41 -191 -2 -191 -3 0 -100 c1 -122 14 -165 70 -221 81&#10;-81 225 -104 639 -104 427 0 661 21 752 68 123 64 181 227 155 435 -19 143&#10;-56 209 -143 253 -93 47 -169 55 -602 59 -356 4 -402 6 -435 22 -72 36 -79&#10;125 -14 169 41 27 126 35 418 36 243 2 285 -6 315 -55 11 -18 20 -40 20 -49 0&#10;-17 16 -18 195 -18 l195 0 0 43 c0 109 -36 212 -92 264 -81 75 -178 93 -514&#10;96 -146 1 -267 1 -268 0z"/>
<path d="M3395 7015 c451 -114 778 -496 813 -946 l7 -94 530 0 530 0 3 55 c2&#10;30 -2 105 -8 165 -25 242 -95 487 -205 713 l-65 132 -847 -1 -848 -1 90 -23z"/>
<path d="M10270 6618 c0 -233 4 -459 9 -503 18 -157 74 -255 176 -311 112 -61&#10;154 -66 616 -71 449 -5 519 0 644 48 81 30 164 112 194 192 36 97 41 173 41&#10;630 l0 437 -199 0 -200 0 -3 -427 c-3 -463 -4 -470 -59 -519 -45 -40 -80 -44&#10;-373 -44 -301 0 -343 5 -388 48 -54 51 -57 78 -58 555 l0 387 -200 0 -200 0 0&#10;-422z"/>
<path d="M5818 6380 l2 -650 200 0 200 0 0 650 0 650 -202 0 -203 0 3 -650z"/>
<path d="M6410 6380 l0 -650 190 0 190 0 2 484 3 485 388 -485 387 -484 315 0&#10;315 0 0 650 0 650 -185 0 -185 0 0 -480 c0 -264 -3 -480 -7 -479 -5 0 -181&#10;216 -392 480 l-384 479 -318 0 -319 0 0 -650z"/>
<path d="M8412 6383 l3 -648 690 0 c632 0 695 2 755 18 171 47 234 142 234&#10;352 0 177 -55 247 -222 280 -40 8 -34 15 30 39 58 21 113 80 129 138 16 60 14&#10;213 -4 271 -31 97 -98 153 -217 181 -55 13 -169 16 -733 16 l-667 0 2 -647z&#10;m1195 341 c37 -28 49 -73 34 -124 -22 -76 -16 -75 -448 -78 l-383 -3 0 116 0&#10;116 384 -3 c373 -3 385 -4 413 -24z m37 -478 c63 -26 74 -136 20 -187 l-26&#10;-24 -414 -3 -414 -3 0 116 0 115 400 0 c318 0 407 -3 434 -14z"/>
<path d="M12140 6380 l0 -650 200 0 200 0 0 171 0 170 373 -3 c341 -3 375 -5&#10;401 -21 44 -29 56 -72 56 -202 l0 -115 200 0 200 0 0 163 c-1 168 -10 218 -47&#10;259 -27 31 -84 56 -142 64 -56 7 -66 20 -23 30 110 27 181 88 209 182 25 80&#10;25 304 0 384 -34 112 -120 185 -246 208 -32 6 -318 10 -717 10 l-664 0 0 -650z&#10;m1185 320 c49 -25 67 -72 62 -165 -2 -45 -10 -90 -17 -102 -29 -46 -52 -48&#10;-450 -48 l-375 0 -3 168 -2 168 377 -3 c312 -2 383 -6 408 -18z"/>
<path d="M16267 6933 c-295 -527 -667 -1196 -667 -1199 0 -2 99 -4 219 -4&#10;l220 0 64 118 65 117 421 3 420 2 61 -120 62 -120 225 0 c191 0 222 2 211 14&#10;-7 8 -168 300 -358 650 l-345 635 -272 1 -272 0 -54 -97z m461 -440 c73 -136&#10;131 -250 130 -253 -2 -3 -125 -3 -274 0 l-271 5 135 248 c74 136 137 247 141&#10;247 3 0 66 -111 139 -247z"/>
<path d="M2960 6886 c-447 -104 -742 -464 -742 -906 0 -244 86 -460 251 -633&#10;275 -288 685 -372 1051 -214 112 49 184 100 290 206 181 182 260 379 260 645&#10;0 264 -99 491 -291 669 -115 107 -244 178 -405 223 -78 22 -337 28 -414 10z"/>
<path d="M1013 5848 c15 -289 88 -565 215 -819 l57 -114 855 -2 c849 -2 854&#10;-2 770 17 -372 79 -658 330 -773 676 -36 111 -57 225 -57 315 l0 49 -537 0&#10;-536 0 6 -122z"/>
<path d="M4183 5716 c-50 -195 -133 -338 -282 -487 -134 -133 -261 -212 -424&#10;-264 -84 -27 -237 -55 -299 -55 l-38 0 0 -536 0 -536 78 4 c217 12 505 73 703&#10;151 137 53 278 123 285 140 2 7 3 385 2 840 l-3 828 -22 -85z"/>
</g>
</svg>