<svg xmlns="http://www.w3.org/2000/svg" version="1.0" width="1591.000000pt" height="1586.000000pt" viewBox="0 0 1591.000000 1586.000000" preserveAspectRatio="xMidYMid meet">

<g transform="translate(0.000000,1586.000000) scale(0.100000,-0.100000)" fill="#ffffff" stroke="none">
<path d="M7645 15849 c-1206 -42 -2427 -375 -3478 -946 l-177 -97 1 -3161 c1 -1738 4 -3146 6 -3130 2 17 15 91 29 165 121 652 409 1264 836 1777 134 162 406 429 565 556 376 299 775 517 1223 668 388 130 706 187 1193 215 l107 6 0 1979 0 1979 -47 -2 c-27 0 -142 -4 -258 -9z" fill="#ffffff"/>
<path d="M8495 11893 c17 -2 82 -13 145 -24 1046 -184 1964 -774 2573 -1653 416 -601 668 -1336 702 -2046 3 -69 8 -149 11 -177 l5 -53 1986 0 1986 0 -6 208 c-40 1280 -375 2512 -980 3605 l-82 147 -3185 -1 c-1752 -1 -3171 -4 -3155 -6z" fill="#ffffff"/>
<path d="M7780 11394 c-393 -27 -690 -88 -1025 -211 -828 -304 -1500 -905 -1896 -1695 -243 -484 -359 -982 -359 -1538 0 -458 73 -848 237 -1265 273 -694 781 -1294 1428 -1686 356 -215 800 -378 1220 -448 221 -37 331 -44 642 -38 257 4 319 8 453 30 736 122 1360 431 1877 931 574 554 922 1252 1030 2061 24 183 24 647 0 830 -87 654 -334 1240 -733 1740 -112 140 -386 415 -529 528 -529 423 -1152 678 -1825 747 -114 11 -431 20 -520 14z" fill="#ffffff"/>
<path d="M4 7733 c27 -752 122 -1370 317 -2046 155 -538 408 -1149 671 -1617 l53 -95 3210 -1 c1766 -1 3199 0 3185 3 -368 57 -572 104 -825 188 -498 165 -945 415 -1330 745 -121 104 -351 342 -451 466 -529 659 -820 1467 -851 2367 l-6 187 -1990 0 -1990 0 7 -197z" fill="#ffffff"/>
<path d="M11906 7403 c-10 -99 -61 -349 -101 -495 -186 -673 -529 -1262 -1025 -1759 -631 -633 -1417 -1020 -2318 -1144 -92 -12 -396 -34 -489 -35 l-23 0 0 -1982 0 -1981 242 7 c746 21 1509 150 2193 373 484 158 940 352 1368 585 l167 91 0 3203 c0 1762 -2 3204 -4 3204 -2 0 -6 -30 -10 -67z" fill="#ffffff"/>
</g>
</svg>